Coordinates
version=1
nRows=16
nColumns=42
inDegrees=yes

Units are S.I. units (second, meters, Newtons, ...)
If the header above contains a line with 'inDegrees', this indicates whether rotational values are in degrees (yes) or radians (no).

endheader
time	pelvis_tilt	pelvis_list	pelvis_rotation	pelvis_tx	pelvis_ty	pelvis_tz	hip_flexion_r	hip_adduction_r	hip_rotation_r	knee_angle_r	knee_adduction_r	knee_angle_r_beta	ankle_angle_r	subtalar_angle_r	mtp_angle_r	hip_flexion_l	hip_adduction_l	hip_rotation_l	knee_angle_l	knee_adduction_l	knee_angle_l_beta	ankle_angle_l	subtalar_angle_l	mtp_angle_l	lumbar_extension	lumbar_bending	lumbar_rotation	arm_flex_r	arm_add_r	arm_rot_r	elbow_flex_r	pro_sup_r	wrist_flex_r	wrist_dev_r	arm_flex_l	arm_add_l	arm_rot_l	elbow_flex_l	pro_sup_l	wrist_flex_l	wrist_dev_l
      0.50000000	      7.97242849	      6.17654955	     -4.57772231	     -1.61112059	      0.97564731	      0.34362904	    -20.71681629	     -7.03898806	    -25.57846849	     18.84947008	     -2.88864232	      0.32898532	     17.47309022	     17.59830464	     -9.48148583	     10.17273026	      5.19977935	    -15.63317302	      5.03574996	     -2.79836537	      0.08789042	     -7.71153928	     13.78914749	     -9.48148583	    -21.55650249	    -12.09387257	      6.96828170	     24.31254727	    -16.22398407	     25.70984014	     41.04767029	     90.00000001	      0.00000000	      0.00000000	    -15.00783366	    -11.86766913	      4.57058611	     39.63513677	     90.00000001	      0.00000000	      0.00000000
      0.51000000	      7.75249812	      6.34664353	     -4.56180525	     -1.60219693	      0.97649141	      0.34178698	    -20.61902304	     -7.57074166	    -25.61818286	     19.61492114	     -2.89571210	      0.34234496	     16.19632292	     17.51092046	     -9.46181883	      9.73011688	      5.53951991	    -15.90854750	      4.66960582	     -2.76617296	      0.08150000	     -7.99197069	     13.99228601	     -9.46181883	    -21.27068215	    -12.34772660	      6.71125540	     23.70700079	    -16.09025813	     25.70114512	     40.98400313	     90.00000001	      0.00000000	      0.00000000	    -14.71326885	    -11.99793454	      4.65084204	     39.46638507	     90.00000001	      0.00000000	      0.00000000
      0.52000000	      7.62044226	      6.72609657	     -4.50287582	     -1.59312686	      0.97759695	      0.33954865	    -20.51714531	     -8.43430365	    -25.92532311	     20.64067727	     -2.86638482	      0.36024778	     15.01307616	     17.36764275	     -9.42190805	      9.16376018	      6.26640264	    -16.06443938	      4.16843577	     -2.94472577	      0.07275293	     -8.43313970	     14.35674964	     -9.42190805	    -21.08786918	    -12.78618382	      6.39672418	     22.98501662	    -15.97234193	     25.50353810	     40.94851748	     90.00000001	      0.00000000	      0.00000000	    -14.33131218	    -12.20860969	      4.86281155	     39.30583389	     90.00000001	      0.00000000	      0.00000000
      0.53000000	      7.51688014	      6.82854856	     -4.42310447	     -1.58424619	      0.97890284	      0.33757888	    -20.32786118	     -8.97347535	    -26.04048712	     21.82851837	     -2.87614758	      0.38097952	     13.53690254	     17.20371156	     -9.40211100	      8.62177372	      6.53690693	    -16.12967698	      3.94147292	     -2.86614143	      0.06879168	     -8.35363336	     14.51440342	     -9.40211100	    -20.98079073	    -12.93845020	      6.10517999	     22.34505944	    -15.87833146	     25.43164762	     40.84700537	     90.00000001	      0.00000000	      0.00000000	    -13.93256911	    -12.39410967	      4.94309066	     39.17645777	     90.00000001	      0.00000000	      0.00000000
      0.54000000	      7.43503578	      6.99066639	     -4.30462380	     -1.57540751	      0.98035638	      0.33539757	    -20.04026558	     -9.62328702	    -26.28210800	     23.23803323	     -2.93182714	      0.40558019	     11.92831610	     16.88442408	     -9.38224388	      8.05737650	      6.93539470	    -16.11586264	      3.69266068	     -2.85991795	      0.06444909	     -8.23766693	     14.72416298	     -9.38224388	    -20.93965193	    -13.13273853	      5.77382621	     21.64198282	    -15.74659710	     25.30950341	     40.76684298	     90.00000001	      0.00000000	      0.00000000	    -13.43802143	    -12.56615901	      5.06170749	     39.02501309	     90.00000001	      0.00000000	      0.00000000
      0.55000000	      7.21216937	      7.37107469	     -4.10586158	     -1.56649021	      0.98156351	      0.33285645	    -19.43171984	    -10.61412938	    -26.85171465	     25.05677164	     -3.01015578	      0.43732316	     10.36295467	     16.36097732	     -9.32127544	      7.62910039	      7.69550427	    -15.83167379	      3.33530355	     -3.06807923	      0.05821203	     -8.25243950	     14.82130307	     -9.32127544	    -20.73747706	    -13.52144236	      5.40169863	     20.77442631	    -15.60812724	     24.84867132	     40.69516689	     90.00000001	      0.00000000	      0.00000000	    -12.90211892	    -12.86857692	      5.42972314	     38.86199784	     90.00000001	      0.00000000	      0.00000000
      0.56000000	      7.28963736	      7.28081891	     -3.95770790	     -1.55784471	      0.98338290	      0.33082747	    -19.08817793	    -11.01986791	    -26.94313186	     26.80499393	     -3.11035102	      0.46783540	      8.66365459	     16.00149566	     -9.30272147	      6.90712635	      7.73409541	    -15.69330516	      3.26208484	     -2.90305518	      0.05693412	     -7.83107084	     14.93064332	     -9.30272147	    -20.93030269	    -13.43702129	      5.07574712	     20.12773953	    -15.52373416	     24.77760888	     40.55248086	     90.00000001	      0.00000000	      0.00000000	    -12.32719462	    -13.04101698	      5.48461400	     38.76935487	     90.00000001	      0.00000000	      0.00000000
      0.57000000	      7.05201692	      7.58112824	     -3.73979093	     -1.54916908	      0.98460492	      0.32828427	    -18.15401572	    -11.97338070	    -27.44135304	     29.09650176	     -3.32790072	      0.50782976	      6.53531839	     14.66600994	     -9.23599234	      6.50379829	      8.39224066	    -15.25867214	      2.96537896	     -3.07358987	      0.05175563	     -7.53503020	     14.91462696	     -9.23599234	    -20.75808601	    -13.72122486	      4.74283117	     19.22560321	    -15.41327202	     24.35745751	     40.42800558	     90.00000001	      0.00000000	      0.00000000	    -11.65260132	    -13.33550892	      5.84293965	     38.52784763	     90.00000001	      0.00000000	      0.00000000
      0.58000000	      7.09172581	      7.57484633	     -3.57901319	     -1.54062699	      0.98630069	      0.32618086	    -17.45508322	    -12.53621394	    -27.71279029	     31.31994399	     -3.62724303	      0.54663614	      4.37460372	     13.70067764	     -9.20382458	      5.78823128	      8.58405467	    -15.01440549	      2.78406098	     -3.02482007	      0.04859103	     -7.02350525	     15.07001136	     -9.20382458	    -20.92346029	    -13.71400469	      4.42513684	     18.48775266	    -15.32643247	     24.22982615	     40.28823491	     90.00000001	      0.00000000	      0.00000000	    -10.95321055	    -13.55722676	      5.97717647	     38.34661179	     90.00000001	      0.00000000	      0.00000000
      0.59000000	      7.01837713	      7.60995024	     -3.37343347	     -1.53235882	      0.98773738	      0.32387738	    -16.45919945	    -13.21072658	    -27.73429910	     33.88348812	     -3.77618286	      0.59137843	      2.33923657	     11.81970763	     -9.14152885	      5.23455343	      8.85661470	    -14.66271666	      2.61897540	     -3.04653470	      0.04570974	     -6.60573403	     15.10716914	     -9.14152885	    -21.00423616	    -13.70996402	      4.08232465	     17.71913568	    -15.20946285	     23.92062984	     40.11504534	     90.00000001	      0.00000000	      0.00000000	    -10.20449263	    -13.84545151	      6.31081070	     38.15088291	     90.00000001	      0.00000000	      0.00000000
      0.60000000	      7.31444647	      7.30783980	     -3.13995805	     -1.52424278	      0.98974019	      0.32183333	    -15.89768525	    -13.41333052	    -27.71050667	     36.20387121	     -4.00132480	      0.63187675	      0.80665785	     11.28302628	     -9.12513346	      4.28011614	      8.63900307	    -14.53991313	      2.57787006	     -2.83571207	      0.04499232	     -6.14605039	     15.29356523	     -9.12513346	    -21.55600524	    -13.34476145	      3.70386180	     17.14290139	    -15.17987819	     23.87094006	     39.90402487	     90.00000001	      0.00000000	      0.00000000	     -9.40468505	    -14.01526110	      6.36345222	     38.14257497	     90.00000001	      0.00000000	      0.00000000
      0.61000000	      7.00665061	      7.54964948	     -2.96669859	     -1.51629337	      0.99054547	      0.31941916	    -14.27851041	    -14.39016140	    -27.78925332	     39.21374643	     -4.33190517	      0.68440899	     -1.91117251	      8.20652179	     -9.07565002	      4.00413488	      9.21038873	    -14.28855054	      2.32080880	     -3.05256955	      0.04050575	     -5.69045665	     15.72202910	     -9.07565002	    -21.37840216	    -13.54904829	      3.43970604	     16.26485189	    -15.08070081	     23.61265351	     39.73778654	     90.00000001	      0.00000000	      0.00000000	     -8.49230070	    -14.34407383	      6.84218774	     37.80647844	     90.00000001	      0.00000000	      0.00000000
      0.62000000	      7.26981083	      7.40968053	     -2.93657115	     -1.50837189	      0.99219023	      0.31769464	    -13.29456622	    -14.78994063	    -27.75265743	     41.82847467	     -4.90317581	      0.73004460	     -3.66613237	      6.78938816	     -9.05163834	      2.98177449	      9.17242474	    -14.24302623	      1.99231257	     -2.84100705	      0.03477241	     -5.06160990	     16.06128279	     -9.05163834	    -21.84936699	    -13.39860895	      3.22629907	     15.64324641	    -15.01773492	     23.57072457	     39.43113348	     90.00000001	      0.00000000	      0.00000000	     -7.59213336	    -14.59680636	      7.02375674	     37.65309422	     90.00000001	      0.00000000	      0.00000000
      0.63000000	      7.24920797	      7.38306110	     -2.80056488	     -1.50075228	      0.99322114	      0.31579023	    -11.88295331	    -15.34083247	    -27.54245954	     44.66412640	     -5.25219553	      0.77953606	     -5.58085946	      4.41427490	     -9.01921642	      2.40156864	      9.33821430	    -14.26055094	      1.80865548	     -2.90152071	      0.03156699	     -4.60003044	     16.57000485	     -9.01921642	    -22.02258015	    -13.35280090	      2.94977592	     14.97946097	    -14.90627993	     23.48086482	     39.19563607	     90.00000001	      0.00000000	      0.00000000	     -6.59931829	    -14.89656944	      7.41232694	     37.43025416	     90.00000001	      0.00000000	      0.00000000
      0.64000000	      7.26649237	      7.25380333	     -2.68463477	     -1.49350689	      0.99431144	      0.31385397	    -10.49046057	    -15.71026816	    -26.06403065	     47.49811536	     -4.70936879	      0.82899850	     -7.27754308	      0.28329451	     -8.93564098	      1.88428163	      9.31640862	    -14.58317717	      1.81228481	     -2.82649985	      0.03163034	     -4.17056940	     17.26880911	     -8.93564098	    -22.28982656	    -13.16124190	      2.72384616	     14.34522579	    -14.80978895	     23.22209215	     38.87964832	     90.00000001	      0.00000000	      0.00000000	     -5.58542293	    -15.22420494	      8.11444630	     37.30336141	     90.00000001	      0.00000000	      0.00000000
      0.65000000	      7.50293123	      7.14365234	     -2.60600658	     -1.48601532	      0.99552769	      0.31225901	     -9.25381815	    -16.01185803	    -26.03127929	     50.03784613	     -5.40278547	      0.87332517	     -8.39936685	     -0.81309063	     -8.91120399	      0.93898230	      9.31766601	    -14.62370108	      1.50649870	     -2.70326492	      0.02629336	     -3.69411389	     17.81102963	     -8.91120399	    -22.74773438	    -13.02813031	      2.45217386	     13.76807307	    -14.72340559	     23.30219351	     38.54006394	     90.00000001	      0.00000000	      0.00000000	     -4.54869744	    -15.49346503	      8.30340323	     37.10168115	     90.00000001	      0.00000000	      0.00000000
